<svg xmlns="http://www.w3.org/2000/svg" width="123.106" height="98.628" viewBox="0 0 123.106 98.628">
  <g id="Layer_1" data-name="Layer 1" transform="translate(-73.948 -0.026)">
    <g id="Group_1" data-name="Group 1" transform="translate(73.948 0.026)">
      <path id="Path_1" data-name="Path 1" d="M370.986.746c.76,2.242.378,4.648.458,6.978.269,7.86.243,15.761.231,23.65l-.315.735L359.142,44.192l-31.313-.164c-.4-4.48-.134-9.006-.2-13.507-.08-5.534-.08-10.979,0-16.513.067-4.421-.239-8.88.231-13.267.252-.411,3.376-.2,4.068-.231,10.841-.542,23.319-.647,34.185-.227a40.2,40.2,0,0,1,4.875.47Zm-8.137,26.115v-15.8c0-1.637-1.264-1.894-2.616-1.994-7.066.453-14.833-.579-21.816.008-.592.05-1.2.244-1.8.3a7.219,7.219,0,0,0-.407,1.268V26.861h5.559a7.917,7.917,0,0,1,2.255.621,4.9,4.9,0,0,1,.785,1.365v6.8h9.438V28.427a3,3,0,0,1,.428-.827c1.075-1.092,6.533-.617,8.17-.739Z" transform="translate(-288.072 -0.026)" fill="#fff"/>
      <path id="Path_2" data-name="Path 2" d="M171.782,18.08V41.1H182.9c-2.217-2.246-3.031-2.784-2.725-6.172a8.4,8.4,0,0,1,7.654-7.847c4.526-.6,10.118-.5,12.86,3.695,2.074,3.174,1.7,6.7,1.919,10.324,2.683-.244,9.732.89,11.16-1.944.063-.13.374-1.033.374-1.092V34.4h5.454c-.193,3.237.055,6.873-2.1,9.518s-4.429,2.893-7.641,3.048c-5.991.29-12.26.164-18.247.21-6.714.055-13.431-.059-20.145-.008L166.32,41V18.08h5.454ZM197.368,41.1V35.974a11.727,11.727,0,0,0-1.045-2.1c-1.39-1.637-7.352-1.721-9.17-.773a4.656,4.656,0,0,0-1.742,2.028,12.723,12.723,0,0,0-.626,2.3V41.1Z" transform="translate(-96.494 41.208)" fill="#fff"/>
      <path id="Path_3" data-name="Path 3" d="M40.274,53.161h8.494a10.019,10.019,0,0,0,2.729-.836,4.381,4.381,0,0,0,1.36-2.62V46.46h5.454c-.122,4.249-.118,8.406-3.77,11.2-1.957,1.5-4.925.865-7.23,1.365l-47.3.2V53.161H20.562c-1.39-1.747-3.371-2.708-3.094-5.282.353-3.25,2.024-6.705,5.114-8.086s10.274-1.251,13.15.638c4.35,2.855,4.413,8.007,4.547,12.73Zm-5.454,0V47.615a9.645,9.645,0,0,0-1.041-1.684c-1.461-1.465-4.455-1.5-6.411-1.36-5.5.4-4.845,4.2-4.921,8.586H34.82Z" transform="translate(-0.01 29.148)" fill="#fff"/>
      <path id="Path_4" data-name="Path 4" d="M139.062,56.954V71.078c0,4.366-3.691,8.893-8.284,8.893h-6.4l2.2-4.6c1.906-.8,4.694-.155,5.9-2.271a6.087,6.087,0,0,0,.491-1.184V56.95h6.084Z" transform="translate(-72.163 18.658)" fill="#fff"/>
      <rect id="Rectangle_25" data-name="Rectangle 25" width="6.504" height="5.441" transform="translate(116.602 65.565)" fill="#fff"/>
      <path id="Path_5" data-name="Path 5" d="M61.44,23.841l.21-5.441a40.31,40.31,0,0,1,6.084,0l.21,5.441Z" transform="translate(-35.648 41.099)" fill="#fff"/>
      <rect id="Rectangle_26" data-name="Rectangle 26" width="6.084" height="5.441" transform="translate(109.263 65.565)" fill="#fff"/>
      <rect id="Rectangle_27" data-name="Rectangle 27" width="6.294" height="5.231" transform="translate(44.249 93.397)" fill="#fff"/>
      <rect id="Rectangle_28" data-name="Rectangle 28" width="5.874" height="5.231" transform="translate(36.909 93.397)" fill="#fff"/>
    </g>
  </g>
</svg>
