<svg xmlns="http://www.w3.org/2000/svg" xmlns:xlink="http://www.w3.org/1999/xlink" width="134" height="134" viewBox="0 0 134 134">
  <defs>
    <filter id="Ellipse_29" x="0" y="0" width="134" height="134" filterUnits="userSpaceOnUse">
      <feOffset input="SourceAlpha"/>
      <feGaussianBlur stdDeviation="8" result="blur"/>
      <feFlood flood-opacity="0.345"/>
      <feComposite operator="in" in2="blur"/>
      <feComposite in="SourceGraphic"/>
    </filter>
  </defs>
  <g id="Group_4403" data-name="Group 4403" transform="translate(-635 -1043)">
    <g transform="matrix(1, 0, 0, 1, 635, 1043)" filter="url(#Ellipse_29)">
      <g id="Ellipse_29-2" data-name="Ellipse 29" transform="translate(24 24)" fill="#9fffcb" stroke="#d9d9d9" stroke-width="1">
        <circle cx="43" cy="43" r="43" stroke="none"/>
        <circle cx="43" cy="43" r="42.5" fill="none"/>
      </g>
    </g>
    <path id="Path_2996" data-name="Path 2996" d="M360.093.565c.569,1.68.283,3.482.343,5.227.2,5.888.182,11.807.173,17.717l-.236.55-9.153,9.052-23.457-.123c-.3-3.356-.1-6.747-.151-10.118-.06-4.145-.06-8.225,0-12.37.05-3.312-.179-6.652.173-9.939.189-.308,2.529-.148,3.048-.173C338.954-.017,348.3-.1,356.442.219a30.111,30.111,0,0,1,3.652.352ZM354,20.128V8.293c0-1.227-.947-1.419-1.959-1.494-5.293.34-11.112-.434-16.343.006-.443.038-.9.182-1.349.223a5.407,5.407,0,0,0-.305.95v12.15h4.164a5.931,5.931,0,0,1,1.689.465,3.668,3.668,0,0,1,.588,1.022v5.1h7.071V21.3a2.247,2.247,0,0,1,.321-.62c.805-.818,4.894-.462,6.121-.554Z" transform="translate(357.433 1092.975)" fill="#1a1a1a"/>
  </g>
</svg>
