<svg xmlns="http://www.w3.org/2000/svg" width="28.87" height="28.87" viewBox="0 0 28.87 28.87">
  <g id="Group_382" data-name="Group 382" transform="translate(-806 -3923)">
    <rect id="Rectangle_241" data-name="Rectangle 241" width="28.87" height="28.87" rx="6" transform="translate(806 3923)" fill="#4f9e8e"/>
    <path id="Path_252" data-name="Path 252" d="M13.131,4.511h0A.871.871,0,1,0,14,5.381.871.871,0,0,0,13.131,4.511Zm3.338,1.756A5.507,5.507,0,0,0,16.135,4.5a3.585,3.585,0,0,0-.842-1.284,3.41,3.41,0,0,0-1.284-.834,5.3,5.3,0,0,0-1.763-.341C11.477,2,11.23,2,9.256,2s-2.22,0-2.99.044A5.3,5.3,0,0,0,4.5,2.385a3.468,3.468,0,0,0-1.284.834A3.41,3.41,0,0,0,2.385,4.5a5.3,5.3,0,0,0-.341,1.763C2,7.036,2,7.282,2,9.256s0,2.22.044,2.99a5.3,5.3,0,0,0,.341,1.763,3.41,3.41,0,0,0,.834,1.284,3.468,3.468,0,0,0,1.284.834,5.3,5.3,0,0,0,1.763.341c.769.044,1.016.044,2.99.044s2.22,0,2.99-.044a5.3,5.3,0,0,0,1.763-.341,3.41,3.41,0,0,0,1.284-.834,3.519,3.519,0,0,0,.842-1.284,5.507,5.507,0,0,0,.334-1.763c0-.769.044-1.016.044-2.99S16.512,7.036,16.469,6.267Zm-1.306,5.892a4.071,4.071,0,0,1-.247,1.35,2.22,2.22,0,0,1-.544.834,2.315,2.315,0,0,1-.834.544,4.071,4.071,0,0,1-1.35.247c-.726.036-.994.044-2.9.044s-2.177,0-2.9-.044a4.158,4.158,0,0,1-1.408-.218,2.373,2.373,0,0,1-.8-.544,2.177,2.177,0,0,1-.537-.834,4.02,4.02,0,0,1-.29-1.379c0-.726-.044-.994-.044-2.9s0-2.177.044-2.9A4.02,4.02,0,0,1,3.6,4.975a2.177,2.177,0,0,1,.573-.8,2.278,2.278,0,0,1,.8-.58A4.158,4.158,0,0,1,6.354,3.35c.726,0,.994-.044,2.9-.044s2.177,0,2.9.044a4.071,4.071,0,0,1,1.35.247,2.22,2.22,0,0,1,.863.58,2.22,2.22,0,0,1,.544.8,4.071,4.071,0,0,1,.247,1.379c.036.726.044.994.044,2.9S15.2,11.433,15.163,12.159ZM9.256,5.534A3.715,3.715,0,1,0,11.9,6.619,3.722,3.722,0,0,0,9.256,5.534Zm0,6.139a2.416,2.416,0,1,1,2.416-2.416,2.416,2.416,0,0,1-2.416,2.416Z" transform="translate(811 3928)" fill="#f8f9fc"/>
  </g>
</svg>
