<svg xmlns="http://www.w3.org/2000/svg" width="195.955" height="156.993" viewBox="0 0 195.955 156.993">
  <g id="Layer_1" data-name="Layer 1" transform="translate(-73.948 -0.026)">
    <g id="Group_1" data-name="Group 1" transform="translate(73.948 0.026)">
      <path id="Path_1" data-name="Path 1" d="M396.679,1.171c1.21,3.569.6,7.4.729,11.107.428,12.511.388,25.088.368,37.646l-.5,1.17L377.826,70.328l-49.843-.261c-.642-7.131-.214-14.335-.321-21.5-.127-8.808-.127-17.476,0-26.285.107-7.037-.381-14.135.368-21.119.4-.655,5.373-.314,6.476-.368C351.762-.065,371.624-.232,388.92.436c1.116.04,7.365.461,7.759.749ZM383.727,42.74V17.592c0-2.606-2.012-3.014-4.164-3.174-11.248.722-23.611-.922-34.725.013-.942.08-1.911.388-2.867.474a11.49,11.49,0,0,0-.648,2.018V42.74h8.848a12.6,12.6,0,0,1,3.589.989,7.8,7.8,0,0,1,1.25,2.172V56.728h15.024V45.233a4.772,4.772,0,0,1,.682-1.317c1.711-1.738,10.4-.982,13.005-1.176Z" transform="translate(-264.699 -0.026)" fill="#fff"/>
      <path id="Path_2" data-name="Path 2" d="M175.015,18.08V54.723H192.7c-3.529-3.575-4.825-4.431-4.337-9.824.635-6.937,5.36-11.582,12.183-12.491,7.2-.962,16.106-.8,20.47,5.881,3.3,5.052,2.7,10.66,3.054,16.434,4.271-.388,15.491,1.417,17.764-3.094.1-.207.595-1.644.595-1.738V44.064h8.681c-.307,5.153.087,10.94-3.348,15.151s-7.051,4.6-12.163,4.852c-9.537.461-19.515.261-29.045.334-10.686.087-21.379-.094-32.066-.013l-8.173-9.831V18.08H175Zm40.727,36.643v-8.16a18.667,18.667,0,0,0-1.664-3.335c-2.212-2.606-11.7-2.74-14.6-1.23a7.41,7.41,0,0,0-2.773,3.228,20.249,20.249,0,0,0-1,3.669v5.828Z" transform="translate(-55.173 76.293)" fill="#fff"/>
      <path id="Path_3" data-name="Path 3" d="M64.1,61.619h13.52a15.948,15.948,0,0,0,4.344-1.33,6.974,6.974,0,0,0,2.165-4.17V50.952h8.681c-.194,6.763-.187,13.38-6,17.83C83.7,71.169,78.971,70.16,75.3,70.955L.01,71.276V61.619H32.724c-2.212-2.78-5.367-4.311-4.925-8.407.561-5.173,3.221-10.673,8.14-12.872s16.354-1.992,20.931,1.016C63.794,45.9,63.894,54.1,64.108,61.619Zm-8.681,0V52.79a15.351,15.351,0,0,0-1.657-2.68c-2.326-2.332-7.091-2.393-10.205-2.165-8.748.635-7.712,6.683-7.833,13.667h19.7Z" transform="translate(-0.01 69.397)" fill="#fff"/>
      <path id="Path_4" data-name="Path 4" d="M147.751,56.957V79.439c0,6.95-5.874,14.155-13.186,14.155H124.38l3.509-7.325c3.034-1.27,7.472-.247,9.4-3.616a9.69,9.69,0,0,0,.782-1.885V56.95h9.684Z" transform="translate(-41.262 63.4)" fill="#fff"/>
      <rect id="Rectangle_25" data-name="Rectangle 25" width="10.352" height="8.661" transform="translate(185.603 104.364)" fill="#fff"/>
      <path id="Path_5" data-name="Path 5" d="M61.44,27.138l.334-8.661c3.261-.448,6.409-.04,9.684,0l.334,8.661Z" transform="translate(-20.386 76.23)" fill="#fff"/>
      <rect id="Rectangle_26" data-name="Rectangle 26" width="9.684" height="8.661" transform="translate(173.921 104.364)" fill="#fff"/>
      <rect id="Rectangle_27" data-name="Rectangle 27" width="10.018" height="8.327" transform="translate(70.433 148.666)" fill="#fff"/>
      <rect id="Rectangle_28" data-name="Rectangle 28" width="9.35" height="8.327" transform="translate(58.751 148.666)" fill="#fff"/>
    </g>
  </g>
</svg>
