<svg xmlns="http://www.w3.org/2000/svg" xmlns:xlink="http://www.w3.org/1999/xlink" width="37" height="18" viewBox="0 0 37 18">
  <defs>
    <clipPath id="clip-path">
      <rect id="Rectangle_260" data-name="Rectangle 260" width="37" height="18" rx="4" transform="translate(726.324 509.964)" fill="#690505"/>
    </clipPath>
  </defs>
  <g id="Mask_Group_17" data-name="Mask Group 17" transform="translate(-726.324 -509.964)" clip-path="url(#clip-path)">
    <g id="SAUDI_FLAG" transform="translate(725.402 506.414)">
      <rect id="Rectangle_259" data-name="Rectangle 259" width="38" height="27" transform="translate(-0.078 -0.45)" fill="#005530"/>
      <g id="Group_388" data-name="Group 388" transform="translate(9.417 6.824)">
        <g id="Group_387" data-name="Group 387">
          <g id="Group_386" data-name="Group 386">
            <path id="Path_2898" data-name="Path 2898" d="M1176.421,299.325c-.047-.436-.095-.847-.083-.943s.142.131.215.142c.036,0,.024-.142-.047-.259-.047-.082-.192-.378-.287-.553-.047-.082-.047-.131-.071-.142a.966.966,0,0,0-.168.39.391.391,0,0,1,.083.236c0,.131.071,1.036.142,1.732.059.518.192,1.648.192,2.344a2.737,2.737,0,0,1-.047.542c-.071.142-.192.271-.608.542-.476.294-1.108.542-1.383.719-.168.105-.118.117.036.07a11.016,11.016,0,0,0,1.276-.353,1.45,1.45,0,0,0,.739-.8,3.1,3.1,0,0,0,.227-1.4l.012-.012C1176.648,301.081,1176.468,299.774,1176.421,299.325Z" transform="translate(-1157.238 -297.488)" fill="#ebf3ed"/>
            <path id="Path_2899" data-name="Path 2899" d="M1213.273,298.645l-.012-.014a2.24,2.24,0,0,1,.417-.012c-.047.082-.417.271-.417.294a1.029,1.029,0,0,0,.334-.082,1.167,1.167,0,0,0,.118-.117c.083-.105.192-.306.168-.329a1.887,1.887,0,0,0-.514,0c-.036,0-.13.189-.142.236S1213.225,298.657,1213.273,298.645Z" transform="translate(-1195.316 -298.267)" fill="#ebf3ed"/>
            <path id="Path_2900" data-name="Path 2900" d="M1119.74,447.208a.914.914,0,0,0-.417-.518l-.024.259a.854.854,0,0,1,.334.378,1.06,1.06,0,0,1,.059.684c0,.07.035.035.059-.07l-.012-.014A1.342,1.342,0,0,0,1119.74,447.208Z" transform="translate(-1103.539 -443.204)" fill="#ebf3ed"/>
            <path id="Path_2901" data-name="Path 2901" d="M523.526,300.419v0a.943.943,0,0,1-.047.731c-.024.07.036.035.083-.07a1.335,1.335,0,0,0,.107-.766.936.936,0,0,0-.417-.612l-.071.271A.968.968,0,0,1,523.526,300.419Z" transform="translate(-521.025 -299.569)" fill="#ebf3ed"/>
            <path id="Path_2902" data-name="Path 2902" d="M765.458,298.342l-.012-.012a1.021,1.021,0,0,1,.059.719c-.012.07.036.035.059-.07a1.523,1.523,0,0,0,0-.766,1.032,1.032,0,0,0-.441-.553l-.024.283A.966.966,0,0,1,765.458,298.342Z" transform="translate(-757.423 -297.576)" fill="#ebf3ed"/>
            <path id="Path_2903" data-name="Path 2903" d="M1221.258,377.1a.992.992,0,0,0-.464-.577l-.024.294a.938.938,0,0,1,.369.413,1.122,1.122,0,0,1,.059.754c-.012.07.036.035.071-.082l-.012,0A1.526,1.526,0,0,0,1221.258,377.1Z" transform="translate(-1202.693 -374.636)" fill="#ebf3ed"/>
            <path id="Path_2904" data-name="Path 2904" d="M947.548,433.58c.036-.117.047-.236.024-.166a3.382,3.382,0,0,0-.251.612c-.036.189,0,.318.083.364s.168-.012.227-.142.059-.259.024-.224-.047.142-.083.154c-.071.012-.166-.07-.154-.236a2.652,2.652,0,0,1,.119-.364Z" transform="translate(-935.472 -430.211)" fill="#ebf3ed"/>
            <path id="Path_2905" data-name="Path 2905" d="M994.364,374.155h0c-.083.023-.2-.058-.192-.247a1.236,1.236,0,0,1,.107-.425c.036-.142.036-.271,0-.189a3.105,3.105,0,0,0-.215.707c-.024.224.036.364.13.413s.192-.035.251-.177.047-.294,0-.259S994.4,374.144,994.364,374.155Z" transform="translate(-981.158 -371.458)" fill="#ebf3ed"/>
            <path id="Path_2906" data-name="Path 2906" d="M1113.272,357.45a3.959,3.959,0,0,0-.31.847.485.485,0,0,0,.13.507c.13.082.239-.035.31-.2s.071-.353.024-.306-.059.2-.107.212c-.095.023-.239-.094-.215-.318a2.619,2.619,0,0,1,.154-.506h-.01C1113.3,357.52,1113.307,357.368,1113.272,357.45Z" transform="translate(-1097.331 -355.979)" fill="#ebf3ed"/>
            <path id="Path_2907" data-name="Path 2907" d="M1059.414,447.875l.014,0c.107.07.192-.023.263-.166s.059-.294.024-.259-.047.166-.095.177c-.083.023-.2-.07-.18-.259a3.015,3.015,0,0,1,.118-.411c.047-.131.047-.271.012-.189a3.718,3.718,0,0,0-.263.7A.4.4,0,0,0,1059.414,447.875Z" transform="translate(-1044.905 -443.255)" fill="#ebf3ed"/>
            <path id="Path_2908" data-name="Path 2908" d="M1052.127,358.758h.014c-.083.023-.2-.07-.18-.259a3.166,3.166,0,0,1,.119-.413c.047-.131.047-.271.012-.189a3.71,3.71,0,0,0-.263.7.4.4,0,0,0,.107.413c.107.07.192-.023.263-.166s.059-.294.024-.259S1052.174,358.746,1052.127,358.758Z" transform="translate(-1037.597 -356.414)" fill="#ebf3ed"/>
            <path id="Path_2909" data-name="Path 2909" d="M432.861,302.423h0a1.341,1.341,0,0,0,.186-.587,3.105,3.105,0,0,0,.024-.672,5.547,5.547,0,0,1,.7-.317.445.445,0,0,0,.5.577c.024.329.059.624.071.8a8.694,8.694,0,0,1,.024.883c0,.082.047.058.107-.105a4.991,4.991,0,0,0,.071-1.249,2.633,2.633,0,0,0-.036-.39c.251-.131.3-.366.381-.472.083.318.549.364.691.294.18-.082.239-.236.286-.588s-.083-.495-.13-.53c0,.047-.118.46-.118.46a.766.766,0,0,1,.118.189.47.47,0,0,1-.441.035c-.154-.058-.215-.154-.2-.224s.071-.131.071-.212-.036-.058-.095.012a1.519,1.519,0,0,0-.192.306.587.587,0,0,1-.393.329c-.036-.39-.071-.789-.095-1.048-.012-.131-.154-1.307-.154-1.438s-.024-.247-.024-.306.036-.035.083.023a1.546,1.546,0,0,0,.142.14c.047-.023,0-.177-.059-.317a5.206,5.206,0,0,0-.31-.7,1.189,1.189,0,0,0-.168.39.425.425,0,0,1,.083.283c0,.047.036.53.071.99.036.4.083.777.095.824.036.306.071.742.118,1.167-.227-.047-.286-.2-.275-.294s.047-.212.024-.247a3.411,3.411,0,0,0-.656.294c-.095.047-.215.094-.334.14-.036-.294-.071-.565-.083-.777v-.023a.667.667,0,0,0,.514-.271,1.424,1.424,0,0,0,.192-.707,3.615,3.615,0,0,0-.215-.813,1.169,1.169,0,0,1-.071-.283c0-.047.095.058.168.07.047,0,.024-.094-.024-.166s-.334-.53-.358-.495a2.778,2.778,0,0,0-.13.413.269.269,0,0,1,.095.2,4.436,4.436,0,0,0,.13.661,6.558,6.558,0,0,1,.227.707,1.065,1.065,0,0,1-.585.212c-.036-.353-.095-.777-.118-1.072v-.294c0-.047.036-.047.083,0s.118.131.13.117c.036,0,0-.131-.059-.259a6.114,6.114,0,0,0-.358-.731,1.479,1.479,0,0,0-.142.376.425.425,0,0,1,.083.283c0,.142.071.859.13,1.485a.676.676,0,0,1-.346-.635,8.349,8.349,0,0,0-.095-.955,1,1,0,0,0-.227-.483c-.024.058-.13.448-.13.448a2.977,2.977,0,0,1,.142.813.868.868,0,0,1-.369.859.667.667,0,0,1-.978-.212c-.13-.341.154-1.2.154-1.4s-.036-.236-.118-.2a1.192,1.192,0,0,0-.381.542,6.177,6.177,0,0,0-.275.978c-.083.271-.2.542-.4.53s-.3-.212-.358-.483a2.075,2.075,0,0,1,0-.731c.036-.236-.059-.189-.107.177a2,2,0,0,0,.059.966c.13.376.346.518.526.472s.358-.518.417-.731.322-1.154.464-1.2c.024.105-.118.448-.154.848s.059.943.538,1.025a.84.84,0,0,0,.907-.46,1.749,1.749,0,0,0,.18-.588,1.074,1.074,0,0,0,.585.92.044.044,0,0,1,.036.012c.024.247.059.577.095.92-.071.023-.142.047-.227.07a.221.221,0,0,0-.036-.094c-.118-.271-.31-.518-.573-.495a.737.737,0,0,0-.561.684c0,.189.107.341.464.39a1.3,1.3,0,0,0,.514-.047,1.854,1.854,0,0,1,.047.224,3.773,3.773,0,0,1-1.74.966c-.7.07-.919-.317-.919-.719a1.711,1.711,0,0,1,.286-.8,1.838,1.838,0,0,0,.393-.425c.024.012.047.035.071.047a.3.3,0,0,1,.118.129c.012-.023.083-.166.059-.236a.945.945,0,0,0-.154-.105c.083-.212.083-.425-.024-.472s-.263.094-.334.189a.222.222,0,0,0-.047.14.189.189,0,0,0,.083.154c.059.047.118.082.168.117a4.6,4.6,0,0,1-.739.577c0-.023-.036,0-.083.058a.251.251,0,0,0-.059.035c-.18.117-.6.364-.68.436s-.036.047,0,.035c.059-.035.13-.07.227-.117.118-.058.263-.142.4-.212a2.781,2.781,0,0,0-.118.259c-.168.425-.429,1.3.142,1.814a1.954,1.954,0,0,0,2.3-.212C432.574,302.8,432.742,302.61,432.861,302.423Zm-.765-1.364c-.4,0-.417-.082-.417-.131a.2.2,0,0,1,.3-.094.667.667,0,0,1,.215.224Zm-1.826-.707h0s-.036-.047,0-.07a.23.23,0,0,1,.107-.058c.083-.012.118.094.083.259C430.391,300.435,430.332,300.389,430.27,300.351Zm.585,2.993v-.012c-.763.224-1.5-.117-1.551-.813a2.077,2.077,0,0,1,.263-1.142c.107-.058.216-.117.3-.166a1.765,1.765,0,0,0-.239,1.2c.083.448.452.707,1.061.624a3.731,3.731,0,0,0,1.646-.931,1.033,1.033,0,0,0,.18-.318.936.936,0,0,0,.071-.236c0-.058.012-.131.012-.189l.215-.07c.024.283.047.553.047.8A4.571,4.571,0,0,1,430.855,303.344Z" transform="translate(-428.771 -297.243)" fill="#ebf3ed"/>
            <path id="Path_2910" data-name="Path 2910" d="M798.225,542.4a3.5,3.5,0,0,0-.393.612.4.4,0,0,0,.012.425c.095.082.192.012.286-.105s.118-.271.071-.236-.083.154-.118.154c-.083,0-.18-.105-.118-.283a1.964,1.964,0,0,1,.2-.376l0-.014C798.237,542.457,798.272,542.327,798.225,542.4Z" transform="translate(-789.357 -536.707)" fill="#ebf3ed"/>
            <path id="Path_2911" data-name="Path 2911" d="M1164.215,535.086a.458.458,0,0,0-.083.2l0,.014c.071-.058.632-.388.739-.46,0,0,.107-.189.071-.212s-.239.189-.369.189-.31-.094-.31-.177c.012-.058.18-.154.227-.166s.047.131.071.154.095-.094.107-.142,0-.236-.107-.212a1.037,1.037,0,0,0-.44.472c-.024.105.118.189.239.236A.5.5,0,0,0,1164.215,535.086Z" transform="translate(-1147.331 -528.787)" fill="#ebf3ed"/>
            <path id="Path_2912" data-name="Path 2912" d="M879.168,299.506l.031-.019c.047.058.381.518.644.813s.715.754,1.049,1.072l.2.2c.083.684.18,1.555.216,1.919s.047.8.047.883.047.058.107-.117a4.67,4.67,0,0,0,.036-1.249c-.024-.247-.071-.719-.119-1.142.192.212.381.413.5.565a3.066,3.066,0,0,1,.537.8c.083.212.071.39.107.425a.858.858,0,0,0,.024-.472,1.974,1.974,0,0,0-.62-1.154c-.18-.224-.4-.448-.62-.672a.711.711,0,0,0-.024-.177c-.012-.131-.18-1.307-.192-1.438s-.036-.247-.024-.306.036-.035.083.023.13.142.142.131c.047-.023,0-.177-.071-.306a5.488,5.488,0,0,0-.334-.7,1.738,1.738,0,0,0-.166.388.425.425,0,0,1,.083.283c0,.047.047.53.095.99.047.4.107.777.107.824-.215-.212-.417-.4-.526-.506a8.776,8.776,0,0,1-.907-.99c0-.035.036,0,.13,0s.168.047.154,0c0-.023-.036-.07-.118-.131s-.3-.2-.452-.294-.239-.189-.275-.166c-.012.012,0,.353,0,.4C879.049,299.389,879.12,299.447,879.168,299.506Z" transform="translate(-868.732 -298.485)" fill="#ebf3ed"/>
            <path id="Path_2913" data-name="Path 2913" d="M1079.38,552.407c-.13,0-.31-.094-.31-.177.012-.058.18-.154.227-.166s.047.131.071.154.095-.094.107-.142,0-.236-.107-.212a1.027,1.027,0,0,0-.44.472c-.024.105.118.189.239.236a.5.5,0,0,0-.142.105.458.458,0,0,0-.083.2l0,.014c.071-.058.632-.39.739-.46,0,0,.107-.189.071-.212S1079.51,552.407,1079.38,552.407Z" transform="translate(-1064.085 -545.975)" fill="#ebf3ed"/>
            <path id="Path_2914" data-name="Path 2914" d="M617.987,478.454a5.208,5.208,0,0,0-.5,1.025c-.095.329-.024.553.107.647.154.117.3,0,.417-.212.107-.189.13-.436.071-.39s-.107.247-.168.259c-.118.023-.286-.142-.227-.425a2.787,2.787,0,0,1,.251-.612l-.01,0C618.01,478.547,618.046,478.347,617.987,478.454Z" transform="translate(-613.137 -474.214)" fill="#ebf3ed"/>
            <path id="Path_2915" data-name="Path 2915" d="M903.4,296.4h-.01a2.465,2.465,0,0,1,.488.023c-.047.035-.358.2-.417.247s-.083.058-.047.058a1.667,1.667,0,0,0,.393-.117,1.484,1.484,0,0,0,.31-.353c.059-.082.059-.129.047-.154a.5.5,0,0,0-.836.271C903.322,296.423,903.333,296.412,903.4,296.4Z" transform="translate(-892.498 -296.012)" fill="#ebf3ed"/>
            <path id="Path_2916" data-name="Path 2916" d="M1039.3,297.422v-.014s.3,0,.393.012c-.036.023-.286.166-.346.2s-.059.047-.036.047a1.67,1.67,0,0,0,.322-.094c.071-.035.166-.224.215-.283s.047-.105.036-.117a1.142,1.142,0,0,0-.5-.012.834.834,0,0,0-.142.236C1039.231,297.434,1039.243,297.434,1039.3,297.422Z" transform="translate(-1025.305 -297.068)" fill="#ebf3ed"/>
            <path id="Path_2917" data-name="Path 2917" d="M978.2,298.452v-.014s.3,0,.393.012c-.036.023-.286.166-.346.2s-.059.047-.036.047a1.553,1.553,0,0,0,.31-.094,1.445,1.445,0,0,0,.251-.283c.047-.07.047-.105.036-.117a1.256,1.256,0,0,0-.526-.012.828.828,0,0,0-.142.236C978.125,298.464,978.137,298.464,978.2,298.452Z" transform="translate(-965.594 -298.074)" fill="#ebf3ed"/>
            <path id="Path_2918" data-name="Path 2918" d="M882.8,542.532l.012-.012s.047-.094.036-.13a.4.4,0,0,0-.154-.271c-.095-.047-.166.047-.216.189-.012,0-.024-.012-.036,0a.973.973,0,0,1-.024.105c0,.082-.036.131-.154.247a3.8,3.8,0,0,1-.668.46c-.215.117-.381.212-.441.247s-.036.035.012.023.346-.117.464-.177a2.326,2.326,0,0,0,.429-.259.879.879,0,0,0,.346-.376c.024-.082.036-.117.036-.117a.572.572,0,0,0,.192.07C882.753,542.568,882.789,542.556,882.8,542.532Zm-.168-.271,0,.012a.58.58,0,0,1,.095.117.725.725,0,0,1-.227-.058A.113.113,0,0,1,882.632,542.262Z" transform="translate(-870.797 -536.443)" fill="#ebf3ed"/>
            <path id="Path_2919" data-name="Path 2919" d="M1003,340.953s.007-.005.01,0a.187.187,0,0,1,.009-.018Z" transform="translate(-989.893 -339.858)" fill="#ebf3ed"/>
            <path id="Path_2920" data-name="Path 2920" d="M984.052,341.74c-.064.133.035.234.069.348-.047.047-.13,0-.154-.035-.059-.094-.036-.271-.107-.294-.012.047-.024.105-.024.105a.576.576,0,0,1,.036.212.114.114,0,0,1-.107.105c-.142,0-.071-.224-.13-.353a.222.222,0,0,1-.036.094c0,.035.012.082.012.105v.166a.116.116,0,0,0,.095.117c.107,0,.154-.082.18-.166.024.082.168.166.227.07.095-.131.024-.236-.024-.353C984.061,341.795,984.064,341.742,984.052,341.74Z" transform="translate(-970.936 -340.65)" fill="#ebf3ed"/>
            <path id="Path_2921" data-name="Path 2921" d="M826.391,308.5a.145.145,0,0,0,.154-.131c.012.07.13.154.192.07.083-.105.024-.2,0-.306-.024-.082-.012-.131-.036-.105-.071.117,0,.212.036.318a.1.1,0,0,1-.13-.035c-.047-.082-.024-.236-.071-.259-.012.047-.024.082-.024.082a.462.462,0,0,1,.024.177.1.1,0,0,1-.095.094c-.118,0-.047-.2-.095-.306a.247.247,0,0,1-.036.082v.22C826.318,308.424,826.35,308.493,826.391,308.5Z" transform="translate(-817.236 -307.704)" fill="#ebf3ed"/>
            <path id="Path_2922" data-name="Path 2922" d="M826.222,324.376l0-.006,0,.021Z" transform="translate(-817.148 -323.676)" fill="#ebf3ed"/>
            <path id="Path_2923" data-name="Path 2923" d="M896.97,564.67l0,.023.04.006Z" transform="translate(-886.283 -558.491)" fill="#ebf3ed"/>
            <path id="Path_2924" data-name="Path 2924" d="M675.835,297.251l0,.014s.239-.117.429-.236a2.234,2.234,0,0,0,.452-.353c.036-.035.059-.07.083-.094a1.074,1.074,0,0,1,.118.058c.036.012.083.035.118-.07a.254.254,0,0,0-.071-.271.677.677,0,0,0-.2-.212c-.059-.023-.083.117-.071.105h.036a.343.343,0,0,0-.142.224c0,.047,0,.094.119.117a.071.071,0,0,1,.047.012,2.09,2.09,0,0,1-.393.329c-.168.128-.417.283-.488.329S675.811,297.263,675.835,297.251Zm1.016-.881.014,0v-.058a.463.463,0,0,1,.13.236.8.8,0,0,1-.168-.07A.637.637,0,0,1,676.85,296.37Zm-.118.057c-.059-.023-.107-.035-.118-.07l.012.01a.218.218,0,0,1,.095-.094c.059-.023.095.047.095.142a.042.042,0,0,1-.024.035C676.768,296.45,676.756,296.439,676.732,296.427Z" transform="translate(-670.178 -296.037)" fill="#ebf3ed"/>
            <path id="Path_2925" data-name="Path 2925" d="M580.19,416.143c-.188-.029-.564-.107-.663-.36a2.376,2.376,0,0,1,.99-.472,6.807,6.807,0,0,0,1.167-.472h.095a4.391,4.391,0,0,0,.154-.413c-.142,0-1.013.082-1.395.094s-1.132.012-1.383.012a4.583,4.583,0,0,1,1.025-.542c.071-.023.13-.047.192-.07a.709.709,0,0,1,.083.236.431.431,0,0,0,.047-.283,3.351,3.351,0,0,1,.526-.154,1.2,1.2,0,0,0,.13-.472,1.5,1.5,0,0,0-.31-.294.643.643,0,0,0-.549-.189c-.251.07-.31.565-.251.672a1.8,1.8,0,0,0,.118.166,4.008,4.008,0,0,0-.549.271,2.693,2.693,0,0,0-.931.672c-.024,0-.036,0-.036.023s-.083.378-.095.413c.083,0,.668,0,1.085-.012s.775-.023.919-.023a4.038,4.038,0,0,0-.919.4.823.823,0,0,0-.263.661,1.5,1.5,0,0,1-.656-.542c-.263-.378-.2-.766-.31-1.272a3.647,3.647,0,0,0-.668-1.543,1.927,1.927,0,0,0-.071.46s.251.588.381.978a1.189,1.189,0,0,1-1.013,1.9c-.488.283-.919.318-1.073.117a.256.256,0,0,1-.059-.142,1.453,1.453,0,0,1,.2-.094,5.973,5.973,0,0,0,1.407-.908.982.982,0,0,0,.083-.92,5.082,5.082,0,0,1-.31-.588c0-.047.118.023.192.023.036,0,.024-.058-.059-.142-.059-.07-.31-.283-.4-.364-.024-.023-.036-.012-.047,0a3.327,3.327,0,0,0-.071.364v.047a.127.127,0,0,1,.071.082,3.988,3.988,0,0,0,.215.495,3.2,3.2,0,0,1,.31.635,6.233,6.233,0,0,1-1.563.955,2.835,2.835,0,0,1,.2-.483l.071-.105c.071-.142.071-.306.036-.271s-.059.177-.107.177c-.083.023-.2-.082-.18-.283a2.063,2.063,0,0,1,.154-.436c.047-.142.071-.283.024-.2a3.664,3.664,0,0,0-.31.719c-.047.224,0,.39.095.448a.105.105,0,0,0,.095.023,3.1,3.1,0,0,0-.192.46c-.286.131-.561.259-.786.341-.81.318-1.395.495-1.8.635h-.012c.024-.105.024-.189,0-.166s-.059.177-.107.177c-.083.023-.2-.082-.18-.283a2.055,2.055,0,0,1,.154-.436c.047-.142.071-.283.024-.2a3.66,3.66,0,0,0-.31.719c-.047.224,0,.39.095.448s.2-.012.275-.166c0-.023.024-.035.024-.058a.338.338,0,0,0,.13-.023c.192-.047.656-.117,1.288-.212a3.392,3.392,0,0,0,1.12-.364v.117c.012.472.3.6.691.507a3.761,3.761,0,0,0,1.217-.707,2.7,2.7,0,0,0,.561-.577,1.907,1.907,0,0,0,.118-.518,1.844,1.844,0,0,0,.3,1.013,1.924,1.924,0,0,0,1.6.754C580.223,416.492,580.2,416.223,580.19,416.143Zm-.055-2.9v0c.13-.154.4-.058.609.142a2.852,2.852,0,0,0-.4.131A1.343,1.343,0,0,1,580.135,413.242Z" transform="translate(-569.501 -409.941)" fill="#ebf3ed"/>
            <path id="Path_2926" data-name="Path 2926" d="M828,369.736a1.633,1.633,0,0,0,.3-.341.992.992,0,0,0,.142.094.3.3,0,0,1,.119.131c.012-.023.083-.166.059-.236a1.626,1.626,0,0,0-.227-.154c.047-.131.13-.353.024-.425s-.239.047-.31.189a.207.207,0,0,0,.047.294c.036.023.059.047.095.07-.107.131-.322.318-.464.46a3.879,3.879,0,0,0-.381.364v.012c-.036-.117-.024-.189-.059-.154-.13.212.036.39.095.553-.083.07-.2,0-.239-.058-.083-.142-.059-.413-.154-.46-.024.07-.047.166-.047.166a.915.915,0,0,1,.059.317c-.012.082-.071.166-.154.166-.227,0-.107-.341-.2-.542a.53.53,0,0,1-.047.142.922.922,0,0,1,.024.166,1.659,1.659,0,0,0,.012.247c.024.105.071.166.154.177.166.012.239-.131.263-.247.024.117.251.247.358.105.142-.2.024-.364-.047-.542v-.023a.315.315,0,0,0,.107-.058l-.019-.012C827.594,370.067,827.857,369.866,828,369.736Zm.18-.682h-.012c.059-.105.168-.117.2-.058a.286.286,0,0,1,0,.224C828.265,369.149,828.179,369.077,828.179,369.054Z" transform="translate(-817.568 -367.076)" fill="#ebf3ed"/>
            <path id="Path_2927" data-name="Path 2927" d="M949,300.821c-.024-.413-.083-.848-.118-1.3,0-.142-.036-.341-.059-.565.251.306.5.612.656.789.059.058.107.131.166.189.047.684.095,1.543.118,1.9s0,.8,0,.883.036.058.095-.105a4.342,4.342,0,0,0,.107-1.249c0-.236-.036-.684-.059-1.1.192.247.369.495.488.658a3.546,3.546,0,0,1,.476.871,3.047,3.047,0,0,1,.083.318c.012.035.071-.117.059-.376l-.026.008a2.2,2.2,0,0,0-.561-1.225c-.154-.2-.358-.472-.585-.742a1.464,1.464,0,0,0-.024-.247c-.024-.378-.13-1.142-.166-1.59v-.294c0-.047.036-.047.083,0s.118.131.13.117c.036,0,0-.131-.059-.259a5.742,5.742,0,0,0-.346-.707,1.471,1.471,0,0,0-.142.378.424.424,0,0,1,.083.283c0,.189.107,1.261.168,1.944v.035c-.334-.4-.644-.766-.774-.908-.024-.023-.047-.058-.071-.082-.024-.177-.036-.353-.059-.495v-.294c0-.047.036-.047.083,0s.118.131.13.117c.036,0,0-.131-.059-.259a5.7,5.7,0,0,0-.358-.719,1.428,1.428,0,0,0-.142.4.429.429,0,0,1,.083.283c0,.082.024.317.047.612a3.976,3.976,0,0,1-.452-.637c0-.035.036,0,.13,0s.168.047.154,0c0-.023-.036-.07-.118-.131s-.3-.2-.452-.294-.239-.189-.275-.166c-.012.012,0,.353,0,.4a.228.228,0,0,1,.154.105c.047.07.346.518.585.824.071.082.18.224.3.39.024.283.047.577.071.824.047.553.227,2.026.227,2.5a1.1,1.1,0,0,1-.668.317.5.5,0,0,1-.526-.283c-.036-.07-.059-.131-.095-.2a.356.356,0,0,0-.148-.152c0-.043,0-.085,0-.127V301l-.033,0c-.024-.46-.083-1.284-.118-1.709-.036-.376-.095-.883-.13-1.343a2.185,2.185,0,0,1,0-.283c0-.047.047-.035.095.023s.118.117.13.105c.047-.023,0-.154-.071-.283a7.967,7.967,0,0,0-.358-.719,1.333,1.333,0,0,0-.142.39.424.424,0,0,1,.083.283c0,.189.095,1.025.154,1.709.047.472.095,1.249.142,1.826,0,0,.024.377.039.542l-.037.006h-.024a.09.09,0,0,0-.047.023,1.027,1.027,0,0,0-.322.318,6,6,0,0,0-.44.824c-.142.271-.251.448-.514.4a.6.6,0,0,1-.393-.4,1.6,1.6,0,0,0,.537-.719,3.237,3.237,0,0,0,.2-1.389c-.012-.495-.227-1.637-.275-2.085s-.13-.8-.118-.894.142.117.216.142c.036,0,.012-.142-.047-.259-.047-.082-.192-.436-.286-.6-.047-.082-.059-.131-.071-.142a.988.988,0,0,0-.154.39.33.33,0,0,1,.083.236c0,.131.118,1.06.215,1.755.071.518.227,1.461.251,2.167a2.1,2.1,0,0,1-.047.483,1.7,1.7,0,0,1-.561.588c-.059-.413,0-.754-.047-.789-.059,0-.071.2-.083.448a2.937,2.937,0,0,0,.024.425,14.781,14.781,0,0,1-1.395.813c-.18.094-.107.117.036.07a8.105,8.105,0,0,0,1.383-.518c.012,0,.036-.023.047-.023a1.381,1.381,0,0,0,.083.236c.142.318.346.518.573.495.192-.012.322-.236.441-.483a3.6,3.6,0,0,1,.526-.943.809.809,0,0,1,.239-.166l.027-.007c0,.258,0,.5-.013.552,0,.082.047.058.107-.105a2.177,2.177,0,0,0,.073-.437.322.322,0,0,1,.069.032.247.247,0,0,1,.095.129,1.2,1.2,0,0,0,.227.39.683.683,0,0,0,.8.047.813.813,0,0,0,.441-.553A4.016,4.016,0,0,0,949,300.821Z" transform="translate(-931.929 -296.706)" fill="#ebf3ed"/>
            <path id="Path_2928" data-name="Path 2928" d="M484.455,466.16c.012.012.227.094.263.105v-.058c.118.094.227.588.263.588s.059-.058.083-.189.047-.306.071-.448.059-.212.13-.224.13.094.154.166a1.776,1.776,0,0,0,.059-.224c-.012-.047-.13-.212-.227-.154s-.154.294-.18.436a2.277,2.277,0,0,1-.059.364,1.367,1.367,0,0,0-.2-.483c-.107-.142-.239-.2-.275-.166l0,0A.433.433,0,0,0,484.455,466.16Z" transform="translate(-483.181 -461.789)" fill="#ebf3ed"/>
            <path id="Path_2929" data-name="Path 2929" d="M445.979,298.913l.012.035a.912.912,0,0,0,.5-.271c.047-.047.083-.131.047-.105a.708.708,0,0,1-.668.224c0-.047.107-.117.251-.224a.89.89,0,0,0,.227-.2h.012c.107.023.227.07.263.035a.225.225,0,0,0,0-.283.883.883,0,0,0-.3-.247c-.107-.058-.13.035-.154.07s0,.058.012.058a.538.538,0,0,0-.071.177.225.225,0,0,0,.012.094.133.133,0,0,0,.059.047.072.072,0,0,1,.047.012,1.114,1.114,0,0,1-.227.177.592.592,0,0,0-.239.271C445.728,298.888,445.74,298.925,445.979,298.913Zm.417-.777.012.01v-.094c.071.058.2.177.192.236a1.383,1.383,0,0,1-.227-.058C446.372,298.206,446.4,298.171,446.4,298.136Zm-.227,0a.169.169,0,0,1,.047-.117c.059-.035.107,0,.13.094a.119.119,0,0,1-.047.082A.47.47,0,0,1,446.169,298.134Z" transform="translate(-445.361 -297.769)" fill="#ebf3ed"/>
            <path id="Path_2930" data-name="Path 2930" d="M444.317,433.11c.059-.082.059-.131.047-.154a.5.5,0,0,0-.836.271c-.012.047,0,.035.071.023a2.463,2.463,0,0,1,.488.023c-.047.035-.358.2-.417.247s-.078.055-.054.058a1.64,1.64,0,0,0,.39-.116A1.484,1.484,0,0,0,444.317,433.11Z" transform="translate(-443.188 -429.739)" fill="#ebf3ed"/>
            <path id="Path_2931" data-name="Path 2931" d="M683.76,296.335l0,0c-.192-.012-.3-.212-.358-.483a2.075,2.075,0,0,1,0-.731c.012-.094-.071-.047-.107.177a2,2,0,0,0,.059.966c.13.378.346.518.526.472s.358-.518.417-.731.322-1.072.464-1.118c.024.105-.118.376-.154.777s.036.92.5,1.013a.84.84,0,0,0,.907-.46,1.748,1.748,0,0,0,.18-.588,1.074,1.074,0,0,0,.585.92.666.666,0,0,0,.774-.166,1.426,1.426,0,0,0,.2-.707,3.564,3.564,0,0,0-.227-.813,1.171,1.171,0,0,1-.071-.283c0-.047.095.058.168.07.047,0,.024-.094-.024-.166s-.334-.53-.358-.495a2.769,2.769,0,0,0-.13.413.269.269,0,0,1,.095.2,4.844,4.844,0,0,0,.142.661,6.137,6.137,0,0,1,.215.707.742.742,0,0,1-.727.105.69.69,0,0,1-.417-.672,8.309,8.309,0,0,0-.095-.955,1,1,0,0,0-.227-.483c-.024.058-.13.448-.13.448a2.978,2.978,0,0,1,.142.813.868.868,0,0,1-.369.859.642.642,0,0,1-.954-.212c-.13-.341.154-1.107.154-1.319s-.036-.236-.119-.2a1.192,1.192,0,0,0-.381.542,5.543,5.543,0,0,0-.275.906C684.082,296.076,683.961,296.347,683.76,296.335Z" transform="translate(-677.449 -293.97)" fill="#ebf3ed"/>
            <path id="Path_2932" data-name="Path 2932" d="M447.45,462.2h0Z" transform="translate(-447.014 -458.36)" fill="#ebf3ed"/>
          </g>
        </g>
        <path id="Path_2933" data-name="Path 2933" d="M550.9,805.656h-1.579a.377.377,0,0,0,.12-.339.213.213,0,0,0-.241-.17h0a.206.206,0,0,0-.206.222v.078a.461.461,0,0,1,0,.222H537.02a1,1,0,0,0,.857.458H548.8a.4.4,0,0,0-.167.378.213.213,0,0,0,.242.17.206.206,0,0,0,.206-.222v-.039h.639c0,.065.072.116.155.116a.15.15,0,0,0,.156-.116h.651a.82.82,0,0,0,.493.17.305.305,0,0,0,.313-.287v-.078A.583.583,0,0,0,550.9,805.656Zm-.881.7s-.072-.1-.144-.1a.136.136,0,0,0-.144.1h-.651a.792.792,0,0,1,.024-.235h1.349l.036.065a.6.6,0,0,0,.132.17h-.6Z" transform="translate(-534.549 -793.477)" fill="#ebf3ed"/>
      </g>
    </g>
  </g>
</svg>
