<svg xmlns="http://www.w3.org/2000/svg" width="19.836" height="18.012" viewBox="0 0 19.836 18.012">
  <path id="Triangle_Warning" d="M12,9v4M4.379,15.2c-.909,1.575-1.364,2.363-1.3,3.009A2,2,0,0,0,3.9,19.618C4.422,20,5.331,20,7.149,20h9.7c1.818,0,2.726,0,3.252-.382a2,2,0,0,0,.814-1.409c.068-.646-.386-1.434-1.3-3.009l-4.85-8.4c-.909-1.575-1.364-2.363-1.958-2.627a2,2,0,0,0-1.627,0c-.593.264-1.048,1.052-1.957,2.626Zm7.672.8v.1h-.1V16Z" transform="translate(-2.082 -2.988)" fill="none" stroke="#d20000" stroke-linecap="round" stroke-linejoin="round" stroke-width="2"/>
</svg>
